# File created by Blade
# Date/Time:  Wed Apr 08 17:31:39 2015
# Frame Rate: 120.000 fps
#------------------------------------------------------
:FULLY-SPECIFIED
:DEGREES
515
root 5.882041 23.560763 -2.605011 -562.122225 -79.440716 373.564258
Spine 232.085456 0.292507 -1.028085
Head 13.545739 10.027540 3.718433
LeftShoulder 12.843706 8.110097 38.286132
LeftArm 37.132042 -16.344901 -21.590980
LeftForeArm 28.876384 0.000000 30.337975
LeftHand -5.030984 -0.000000 -1.949655
LeftHandThumb1 -26.253704 0.000000 33.147579
RightShoulder 0.276323 -40.273207 -34.801840
RightArm 48.975490 23.406334 27.795452
RightForeArm -8.540915 -0.000000 29.418810
RightHand 7.746914 -0.000000 -2.485066
RightHandThumb1 -24.326973 -0.000000 -32.862282
LeftUpLeg 127.051266 -10.286504 -10.559987
LeftLeg 101.521675 -0.000000 -0.000000
LeftFoot -35.511653 -1.752275 -7.756198
LeftToeBase 0.427153 -0.000000 -0.000000
RightUpLeg 132.236774 18.820356 13.271638
RightLeg 111.121543 -0.000000 -0.000000
RightFoot -38.906517 10.050334 12.881395
RightToeBase -5.513140 -0.000000 0.000000
516
root 5.811854 23.545918 -2.587591 -562.058723 -79.506977 373.505810
Spine 231.783528 0.293147 -1.058300
Head 13.567981 10.008085 3.689816
LeftShoulder 12.680833 8.682954 38.114654
LeftArm 36.966046 -16.171103 -21.661540
LeftForeArm 28.727113 -0.000000 30.255404
LeftHand -5.047346 -0.000000 -1.938217
LeftHandThumb1 -26.253704 0.000000 33.147579
RightShoulder 0.110976 -40.552549 -34.611488
RightArm 48.952322 23.154166 27.844330
RightForeArm -8.542479 -0.000000 28.990297
RightHand 7.493240 -0.000000 -1.826678
RightHandThumb1 -24.326973 -0.000000 -32.862282
LeftUpLeg 127.045221 -10.371359 -10.704822
LeftLeg 101.811705 -0.000000 -0.000000
LeftFoot -35.332966 -2.082183 -7.757664
LeftToeBase 0.042177 -0.000000 -0.000000
RightUpLeg 132.318166 19.030494 13.397419
RightLeg 111.270396 -0.000000 -0.000000
RightFoot -38.784251 10.286841 12.646478
RightToeBase -5.656257 -0.000000 0.000000
517
root 5.732885 23.532716 -2.573414 -562.219230 -79.566362 373.725224
Spine 231.421322 0.276127 -1.061704
Head 13.593679 9.989739 3.631467
LeftShoulder 12.530567 9.203354 37.933376
LeftArm 36.761465 -15.964756 -21.828441
LeftForeArm 28.613688 -0.000000 30.261560
LeftHand -5.052045 -0.000000 -1.952118
LeftHandThumb1 -26.253704 0.000000 33.147579
RightShoulder -0.058049 -40.772960 -34.396232
RightArm 48.832689 22.849807 27.890301
RightForeArm -8.505622 -0.000000 28.663946
RightHand 7.412915 0.000000 -1.552889
RightHandThumb1 -24.326973 -0.000000 -32.862282
LeftUpLeg 127.017423 -10.504375 -10.771340
LeftLeg 102.092925 -0.000000 -0.000000
LeftFoot -35.162684 -2.259422 -7.821447
LeftToeBase -0.327731 -0.000000 0.000000
RightUpLeg 132.353487 19.084483 13.508732
RightLeg 111.432823 -0.000000 -0.000000
RightFoot -38.708101 10.490070 12.637683
RightToeBase -5.801193 -0.000000 0.000000
518
root 5.656886 23.518197 -2.556704 -562.315315 -79.648932 373.862366
Spine 231.073412 0.272610 -1.070776
Head 13.607198 10.026134 3.554842
LeftShoulder 12.330774 9.741200 37.692116
LeftArm 36.578529 -15.743312 -21.976265
LeftForeArm 28.477594 0.000000 30.276794
LeftHand -5.068851 -0.000000 -1.943294
LeftHandThumb1 -26.253704 0.000000 33.147579
RightShoulder -0.229557 -40.956612 -34.198072
RightArm 48.767506 22.559137 28.000225
RightForeArm -8.528484 -0.000000 28.338202
RightHand 7.476363 -0.000000 -1.402738
RightHandThumb1 -24.326973 -0.000000 -32.862282
LeftUpLeg 126.985262 -10.645678 -10.846687
LeftLeg 102.401238 -0.000000 -0.000000
LeftFoot -34.989392 -2.414017 -7.818614
LeftToeBase -0.672365 -0.000000 0.000000
RightUpLeg 132.395573 19.183803 13.605531
RightLeg 111.588027 -0.000000 -0.000000
RightFoot -38.649493 10.643665 12.557199
RightToeBase -5.967592 -0.000000 0.000000
519
root 5.582416 23.503168 -2.536182 -562.430501 -79.754381 373.966043
Spine 230.756995 0.266550 -1.081068
Head 13.652077 10.102354 3.509924
LeftShoulder 12.104062 10.231216 37.465199
LeftArm 36.437800 -15.549532 -22.338250
LeftForeArm 28.329640 -0.000000 30.326054
LeftHand -5.058804 -0.000000 -2.054100
LeftHandThumb1 -26.253704 0.000000 33.147579
RightShoulder -0.345971 -41.155909 -34.004773
RightArm 48.664239 22.327810 28.126339
RightForeArm -8.521261 0.000000 28.011638
RightHand 7.744807 -0.000000 -1.090783
RightHandThumb1 -24.326973 -0.000000 -32.862282
LeftUpLeg 126.989280 -10.772939 -10.921902
LeftLeg 102.728581 -0.000000 -0.000000
LeftFoot -34.798213 -2.477973 -7.783842
LeftToeBase -1.110078 -0.000000 0.000000
RightUpLeg 132.474139 19.291432 13.707774
RightLeg 111.751680 -0.000000 -0.000000
RightFoot -38.544955 10.809877 12.462093
RightToeBase -6.192420 -0.000000 0.000000
520
root 5.509651 23.487039 -2.513805 -562.585425 -79.847069 374.101799
Spine 230.436546 0.250012 -1.121319
Head 13.702402 10.174684 3.463852
LeftShoulder 11.886115 10.766222 37.191151
LeftArm 36.350697 -15.351375 -22.597401
LeftForeArm 27.977802 -0.000000 30.374981
LeftHand -5.257322 -0.000000 -1.844327
LeftHandThumb1 -26.253704 0.000000 33.147579
RightShoulder -0.520033 -41.453056 -33.758848
RightArm 48.543548 22.115087 28.148868
RightForeArm -8.484276 -0.000000 27.808387
RightHand 7.684368 -0.000000 -0.932083
RightHandThumb1 -24.326973 -0.000000 -32.862282
LeftUpLeg 126.979814 -10.869252 -10.993085
LeftLeg 103.077145 -0.000000 -0.000000
LeftFoot -34.561547 -2.622474 -7.834454
LeftToeBase -1.588771 -0.000000 0.000000
RightUpLeg 132.551807 19.474493 13.820598
RightLeg 111.923774 -0.000000 -0.000000
RightFoot -38.420790 10.979217 12.362086
RightToeBase -6.507531 -0.000000 0.000000
521
root 5.436859 23.472850 -2.491491 -562.750547 -79.996328 374.258835
Spine 230.121111 0.171594 -1.179830
Head 13.702477 10.255342 3.411094
LeftShoulder 11.658545 11.207164 36.934112
LeftArm 36.236938 -15.113913 -22.996456
LeftForeArm 27.848518 -0.000000 30.479648
LeftHand -5.310597 -0.000000 -1.848113
LeftHandThumb1 -26.253704 0.000000 33.147579
RightShoulder -0.722917 -41.735895 -33.478493
RightArm 48.432159 21.931471 28.211173
RightForeArm -8.443556 -0.000000 27.635734
RightHand 7.663717 -0.000000 -0.803070
RightHandThumb1 -24.326973 -0.000000 -32.862282
LeftUpLeg 126.978478 -10.990178 -11.089765
LeftLeg 103.415677 -0.000000 -0.000000
LeftFoot -34.332713 -2.696368 -7.838041
LeftToeBase -2.068285 -0.000000 0.000000
RightUpLeg 132.594294 19.586831 13.899705
RightLeg 112.078467 -0.000000 -0.000000
RightFoot -38.303201 11.121982 12.289527
RightToeBase -6.653435 -0.000000 0.000000
